<?xml version="1.0" encoding="UTF-8"?><svg xmlns="http://www.w3.org/2000/svg" viewBox="0 0 71.18 11.1"><defs><style>.d{fill:#fff;}</style></defs><g id="a"/><g id="b"><g id="c"><g><polygon class="d" points="4.94 2.15 1.49 2.15 1.49 4.53 4.82 4.53 4.82 5.93 1.49 5.93 1.49 10.64 0 10.64 0 .74 4.94 .74 4.94 2.15"/><rect class="d" x="21.44" y=".74" width="1.49" height="9.9"/><polygon class="d" points="41.56 .74 41.56 9.24 44.47 9.24 44.47 10.64 40.07 10.64 40.07 .74 41.56 .74"/><polygon class="d" points="60.3 10.64 62.39 0 65.79 7.7 69.31 0 71.18 10.64 69.65 10.64 68.69 4.67 65.76 11.1 62.91 4.66 61.85 10.64 60.3 10.64"/></g></g></g></svg>