<?xml version="1.0" encoding="UTF-8"?><svg xmlns="http://www.w3.org/2000/svg" viewBox="0 0 180.1 13"><defs><style>.d{fill:#fff;}</style></defs><g id="a"/><g id="b"><g id="c"><path class="d" d="M95.32,12.66h-3.78l-2.9-4.74v4.74h-3.04V.34h4.73c.65,0,1.22,.1,1.71,.3,.49,.2,.89,.48,1.2,.82s.55,.75,.71,1.21c.16,.46,.24,.95,.24,1.47,0,.94-.21,1.7-.64,2.28-.43,.58-1.06,.98-1.9,1.18l3.67,5.05Zm-6.68-6.81h.57c.6,0,1.06-.13,1.38-.39,.32-.26,.48-.64,.48-1.13s-.16-.87-.48-1.13c-.32-.26-.78-.39-1.38-.39h-.57v3.04Z"/><rect class="d" x="115.08" y=".34" width="3.04" height="12.31"/><path class="d" d="M176.16,10.52h-4.34l-.7,2.14h-3.24L172.33,.34h3.32l4.45,12.32h-3.24l-.7-2.14Zm-.81-2.43l-1.37-4.1-1.36,4.1h2.73Z"/><polygon class="d" points="6.7 3.05 3.04 3.05 3.04 5.11 6.37 5.11 6.37 7.82 3.04 7.82 3.04 12.66 0 12.66 0 .34 6.7 .34 6.7 3.05"/><polygon class="d" points="29.5 .34 29.5 9.95 33.14 9.95 33.14 12.66 26.46 12.66 26.46 .34 29.5 .34"/><path class="d" d="M52.9,6.5c0-.91,.16-1.77,.48-2.56,.32-.79,.77-1.48,1.33-2.07,.57-.59,1.25-1.05,2.04-1.38,.79-.33,1.66-.5,2.61-.5s1.81,.17,2.6,.5c.8,.33,1.48,.79,2.05,1.38,.57,.59,1.02,1.28,1.34,2.07,.32,.79,.48,1.64,.48,2.56s-.16,1.77-.48,2.56c-.32,.79-.77,1.48-1.34,2.07-.57,.59-1.26,1.05-2.05,1.38-.8,.33-1.66,.5-2.6,.5s-1.82-.17-2.61-.5c-.79-.33-1.47-.79-2.04-1.38-.57-.59-1.01-1.28-1.33-2.07-.32-.79-.48-1.64-.48-2.56m3.18,0c0,.49,.09,.94,.26,1.36,.17,.41,.41,.77,.71,1.08,.3,.3,.65,.54,1.05,.71,.4,.17,.82,.25,1.27,.25s.86-.08,1.26-.25c.4-.17,.75-.41,1.05-.71,.3-.3,.54-.67,.72-1.08,.18-.41,.26-.87,.26-1.36s-.09-.94-.26-1.36c-.18-.41-.42-.77-.72-1.08-.3-.3-.66-.54-1.05-.71-.4-.17-.82-.25-1.26-.25s-.87,.08-1.27,.25c-.4,.17-.75,.41-1.05,.71-.3,.3-.54,.67-.71,1.08-.18,.41-.26,.87-.26,1.36"/><path class="d" d="M137.87,.34h4.5c.8,0,1.54,.17,2.24,.51,.7,.34,1.31,.79,1.83,1.35,.52,.56,.93,1.21,1.23,1.96,.3,.75,.45,1.53,.45,2.34s-.15,1.58-.44,2.33c-.29,.75-.7,1.4-1.23,1.97-.52,.57-1.13,1.02-1.83,1.36s-1.45,.51-2.26,.51h-4.5V.34Zm3.04,9.6h.7c.53,0,1-.09,1.41-.26,.41-.17,.76-.41,1.05-.72,.28-.31,.5-.67,.65-1.09,.15-.42,.22-.88,.22-1.38s-.08-.95-.23-1.37c-.16-.42-.38-.79-.66-1.09-.28-.31-.63-.55-1.05-.72-.41-.17-.88-.26-1.4-.26h-.7v6.89Z"/></g></g></svg>