<?xml version="1.0" encoding="UTF-8"?><svg xmlns="http://www.w3.org/2000/svg" viewBox="0 0 146.78 11.1"><defs><style>.d{fill:#fff;}</style></defs><g id="a"/><g id="b"><g id="c"><g><path class="d" d="M3.35,6.43l3.07,4.22h-1.83L1.76,6.59h-.27v4.05H0V.74H1.75c1.31,0,2.25,.25,2.83,.74,.64,.55,.96,1.27,.96,2.17,0,.7-.2,1.3-.6,1.81-.4,.51-.93,.83-1.59,.97m-1.86-1.14h.47c1.41,0,2.12-.54,2.12-1.62,0-1.01-.69-1.52-2.07-1.52h-.53v3.14Z"/><polygon class="d" points="28.13 2.15 24.16 2.15 24.16 4.53 28.01 4.53 28.01 5.93 24.16 5.93 24.16 9.24 28.13 9.24 28.13 10.64 22.67 10.64 22.67 .74 28.13 .74 28.13 2.15"/><polygon class="d" points="46.35 4.69 50.2 .74 52.19 .74 47.72 5.23 52.22 10.64 50.22 10.64 46.65 6.24 46.35 6.55 46.35 10.64 44.85 10.64 44.85 .74 46.35 .74 46.35 4.69"/><polygon class="d" points="69.81 .74 69.81 9.24 72.72 9.24 72.72 10.64 68.31 10.64 68.31 .74 69.81 .74"/><path class="d" d="M95.26,8.24h-4.24l-1.1,2.4h-1.61L93.21,.12l4.72,10.52h-1.64l-1.04-2.4Zm-.61-1.4l-1.47-3.37-1.54,3.37h3.01Z"/><polygon class="d" points="113.59 10.64 115.67 0 119.07 7.7 122.59 0 124.46 10.64 122.93 10.64 121.98 4.67 119.04 11.1 116.2 4.66 115.13 10.64 113.59 10.64"/><polygon class="d" points="146.78 2.15 142.81 2.15 142.81 4.53 146.67 4.53 146.67 5.93 142.81 5.93 142.81 9.24 146.78 9.24 146.78 10.64 141.32 10.64 141.32 .74 146.78 .74 146.78 2.15"/></g></g></g></svg>