<?xml version="1.0" encoding="UTF-8"?><svg xmlns="http://www.w3.org/2000/svg" viewBox="0 0 105.34 22.39"><defs><style>.d{fill:#fff;}</style></defs><g id="a"/><g id="b"><g id="c"><g><path class="d" d="M9.59,3.78l-1.91,1.13c-.36-.62-.7-1.02-1.02-1.21-.34-.22-.77-.32-1.3-.32-.65,0-1.19,.19-1.62,.55-.43,.36-.65,.82-.65,1.37,0,.76,.56,1.37,1.69,1.84l1.55,.64c1.26,.51,2.19,1.14,2.77,1.87,.58,.74,.88,1.64,.88,2.71,0,1.43-.48,2.62-1.43,3.55-.96,.94-2.16,1.41-3.58,1.41-1.35,0-2.47-.4-3.35-1.2-.87-.8-1.41-1.93-1.62-3.38l2.38-.52c.11,.92,.3,1.55,.57,1.9,.48,.67,1.19,1.01,2.12,1.01,.73,0,1.34-.25,1.83-.74,.48-.49,.73-1.11,.73-1.87,0-.3-.04-.58-.13-.83-.08-.25-.22-.48-.39-.7-.18-.21-.41-.41-.69-.6s-.62-.36-1.01-.53l-1.5-.63c-2.13-.9-3.2-2.22-3.2-3.96,0-1.17,.45-2.15,1.34-2.94,.89-.79,2.01-1.19,3.34-1.19,1.8,0,3.2,.87,4.21,2.62Z"/><path class="d" d="M15.28,0V10.39l3.2-3.18h3.05l-4.27,4.13,4.58,5.7h-2.95l-3.25-4.15-.36,.36v3.78h-2.27V0h2.27Z"/><path class="d" d="M23.58,3.13c0-.4,.14-.74,.43-1.03,.29-.29,.64-.43,1.04-.43s.76,.14,1.05,.43c.29,.28,.43,.63,.43,1.04s-.14,.76-.43,1.05c-.28,.29-.63,.43-1.04,.43s-.76-.14-1.05-.43c-.29-.29-.43-.64-.43-1.06Zm2.61,4.09v9.83h-2.27V7.21h2.27Z"/><path class="d" d="M31.96,22.39h-2.27V7.21h2.27v1.07c.89-.89,1.91-1.34,3.05-1.34,1.35,0,2.47,.5,3.34,1.49,.89,.99,1.33,2.24,1.33,3.74s-.44,2.7-1.32,3.68c-.88,.98-1.98,1.46-3.31,1.46-1.15,0-2.18-.46-3.09-1.38v6.45Zm5.4-10.2c0-.94-.26-1.71-.77-2.3-.52-.6-1.17-.9-1.96-.9-.83,0-1.51,.29-2.03,.87-.52,.58-.78,1.34-.78,2.28s.26,1.68,.78,2.28c.51,.59,1.18,.88,2.02,.88,.79,0,1.44-.3,1.95-.89,.52-.59,.79-1.33,.79-2.22Z"/><path class="d" d="M50.92,1.46l4.31,10.8L59.59,1.46h2.57l-6.99,16.75L48.34,1.46h2.57Z"/><path class="d" d="M64.15,3.13c0-.4,.14-.74,.43-1.03,.29-.29,.64-.43,1.04-.43s.76,.14,1.05,.43c.29,.28,.43,.63,.43,1.04s-.14,.76-.43,1.05c-.28,.29-.63,.43-1.04,.43s-.76-.14-1.05-.43c-.29-.29-.43-.64-.43-1.06Zm2.61,4.09v9.83h-2.27V7.21h2.27Z"/><path class="d" d="M77.5,0h2.28V17.04h-2.28v-1.03c-.89,.87-1.91,1.31-3.04,1.31-1.35,0-2.46-.49-3.35-1.47-.88-1-1.32-2.25-1.32-3.75s.44-2.69,1.32-3.67c.88-.99,1.97-1.48,3.3-1.48,1.15,0,2.18,.47,3.09,1.41V0Zm-5.39,12.1c0,.94,.25,1.71,.76,2.3,.52,.6,1.17,.9,1.96,.9,.84,0,1.52-.29,2.04-.87,.52-.6,.78-1.36,.78-2.28s-.26-1.68-.78-2.28c-.52-.58-1.19-.88-2.02-.88-.78,0-1.43,.3-1.96,.89-.52,.6-.78,1.34-.78,2.22Z"/><path class="d" d="M92.22,12.66h-7.04c.06,.81,.32,1.45,.79,1.93,.46,.47,1.06,.71,1.79,.71,.56,0,1.03-.13,1.4-.4,.36-.27,.78-.77,1.24-1.49l1.92,1.07c-.3,.5-.61,.94-.94,1.3-.33,.36-.68,.66-1.06,.89-.38,.23-.78,.4-1.22,.51-.44,.11-.91,.16-1.42,.16-1.47,0-2.64-.47-3.53-1.41-.89-.95-1.33-2.21-1.33-3.77s.43-2.81,1.29-3.77c.87-.95,2.02-1.42,3.45-1.42s2.59,.46,3.43,1.38c.83,.91,1.25,2.18,1.25,3.8v.53Zm-2.34-1.86c-.32-1.21-1.08-1.82-2.29-1.82-.28,0-.54,.04-.78,.13s-.46,.21-.66,.36c-.2,.16-.37,.35-.51,.57-.14,.22-.25,.47-.32,.76h4.56Z"/><path class="d" d="M94.86,12.06c0-1.42,.51-2.63,1.52-3.62s2.25-1.49,3.71-1.49,2.71,.5,3.73,1.5c1.01,1,1.51,2.23,1.51,3.69s-.51,2.71-1.52,3.7c-1.02,.99-2.28,1.48-3.76,1.48s-2.71-.5-3.7-1.51c-1-1-1.49-2.25-1.49-3.75Zm2.32,.04c0,.98,.26,1.76,.79,2.33,.54,.58,1.25,.87,2.13,.87s1.6-.29,2.13-.86c.53-.57,.8-1.33,.8-2.29s-.27-1.72-.8-2.29c-.54-.58-1.25-.87-2.13-.87s-1.57,.29-2.11,.87-.81,1.33-.81,2.24Z"/></g></g></g></svg>